<svg id="lightBlue" xmlns="http://www.w3.org/2000/svg" viewBox="0 0 200 50"><path d="M24.05,15.52l.31.27.62-.44c.19-.06.6.16.8-.23l-.19-.68h1l0-.12,1.77-.55,0-.29c-.49-.09-1,.07-1.51-.21a.43.43,0,0,0-.4,0c-.5.4-1,.14-1.48,0l-.25-.46.49-.45c.28,0,.6-.11.8.16l1.31-.23.26-.24-.38-.13a.33.33,0,0,1,0-.13c.5-.62,1.3-.59,2-.78.2-.06.39-.15.79-.3-1.53-.21-2.85.09-4.13-.2,0,0,0-.05-.08-.07a7.16,7.16,0,0,1-3.17.11l.3-.31a4.45,4.45,0,0,0,2.57-.41l.26.18,1.52-.21.08-.22a1.24,1.24,0,0,0-.26-.1H25.6a6.25,6.25,0,0,0-2,.18,8,8,0,0,1-2.77.2,1.61,1.61,0,0,0-1.26.39c-.68,0-1.37,0-2.05,0a8.26,8.26,0,0,1-1.65.18l-.31-.06a8.44,8.44,0,0,1,3-.94,15.86,15.86,0,0,0,2.94-.5c.52-.18,1.16-.05,1.74-.21a7.68,7.68,0,0,1,1.45-.2,12.72,12.72,0,0,0,1.35-.16,19.62,19.62,0,0,1,2.67-.23A4,4,0,0,0,30,8a2.7,2.7,0,0,1,1.3,0c.4,0,.77-.26,1.17,0a5.1,5.1,0,0,1,2.68-.36H38a2.26,2.26,0,0,0,1.15-.19,1.92,1.92,0,0,1,.63-.19c.27,0,.54,0,.81,0A2.75,2.75,0,0,0,41.85,7a2.4,2.4,0,0,1,1.33-.2,26.6,26.6,0,0,0,2.68-.18,2.71,2.71,0,0,1,.57.13c.35-.4,1,0,1.45-.3a3.08,3.08,0,0,1,1.42-.21,14.23,14.23,0,0,0,1.5-.32c.5-.07,1-.07,1.54-.11a1.43,1.43,0,0,1,1.12-.35,2.53,2.53,0,0,0,1-.18A3.18,3.18,0,0,1,55.75,5a2.79,2.79,0,0,0,.93-.18c.51-.14,1-.11,1.55-.22a11.64,11.64,0,0,1,1.55-.16c.22,0,.42-.16.64-.18a6.86,6.86,0,0,1,1.75-.2.34.34,0,0,0,.2,0,5,5,0,0,1,2.49-.38s.09,0,.1,0c.78-.64,1.73-.3,2.6-.38a3.05,3.05,0,0,1,.43,0L69,4l-.27.56-.59.34c.07.06.1.13.14.13.79,0,1.57,0,2.35,0a3.75,3.75,0,0,0,1.44-.21,2.29,2.29,0,0,1,1.25-.15c.56.06,1-.23,1.56-.21a4.87,4.87,0,0,0,1.62,0c.54-.17,1.07,0,1.55-.18a5.25,5.25,0,0,1,1.46-.17h1.64a2.71,2.71,0,0,0,1.15-.17,3.1,3.1,0,0,1,1.34-.22c1.32,0,2.65,0,4,0A11.23,11.23,0,0,1,89.8,3.5c2,.4,4,.1,5.94.19a1.68,1.68,0,0,0,1.05-.18,1.33,1.33,0,0,1,.62-.19,5.61,5.61,0,0,1,.82,0h16.46a16,16,0,0,1,2.06-.16,56.23,56.23,0,0,0,6,.17,7.67,7.67,0,0,1,.93.19c.29,0,.59-.1.86.17.1.09.39,0,.59,0,.89,0,1.77,0,2.66,0a5.65,5.65,0,0,1,2,.34,1.57,1.57,0,0,0,.49.05,7.3,7.3,0,0,0,.81,0c2.54-.14,5.06.27,7.59.19,1.66.39,3.36,0,5,.22,2.33.3,4.65.07,7,.17a9,9,0,0,1,1.14.19,3.76,3.76,0,0,1,1.17.15,3,3,0,0,0,1.41,0,5,5,0,0,1,1.94.23,4.27,4.27,0,0,0,1.26.16h2.86a6.41,6.41,0,0,1,2.3.36,1.64,1.64,0,0,0,.5,0c.58,0,1.16,0,1.73,0,.42,0,.84-.12,1.27.16s.86-.16,1.23.21c0,0,.2,0,.3,0l3.83.24.25.24a6.56,6.56,0,0,1-2.53.28c-.45,0-.9-.15-1.35-.18a6.07,6.07,0,0,1-1.42,0,2.22,2.22,0,0,0-1.68,0,1,1,0,0,1-.61,0,11.16,11.16,0,0,0-3.31-.38c-1.36,0-2.72,0-4.09,0a5.74,5.74,0,0,1-1.72-.28,2.57,2.57,0,0,0-1.92.17c.6.1,1.16.17,1.71.3a22.6,22.6,0,0,0,3.39.2,6.76,6.76,0,0,1,2,.35,2.1,2.1,0,0,0,.71,0,25.56,25.56,0,0,1,3.26.14c-.21,0-.41,0-.61.06-.45.06-.94-.17-1.35.18a.23.23,0,0,1-.2,0c-.7-.43-1.57,0-2.3-.36a1.32,1.32,0,0,0-.9,0,8.87,8.87,0,0,1-3,.16,28.3,28.3,0,0,1-3.18.21c-.35,0-.71.09-1.06-.17a.68.68,0,0,0-.78.12c-.35,0-.66-.12-1-.14-1.94-.11-3.89-.27-5.84-.21a5.63,5.63,0,0,1-1.14-.18c-.35-.05-.74.14-1.06-.18-.08-.08-.32,0-.49,0-.65,0-1.3,0-1.95,0-1.1,0-2.17-.27-3.29-.24a12.87,12.87,0,0,0-1.43-.13l-.4.37h-2.71l0,.29c.07,0,.13.08.18.08a5.58,5.58,0,0,1,1.6.1c.5.18,1.08-.12,1.5.29.75,0,1.5,0,2.25,0a5.17,5.17,0,0,1,1.56.19c.46.12,1-.13,1.45.19.14.09.4,0,.61,0a16.8,16.8,0,0,1,2.75,0c1.61.26,3.23,0,4.82.19.8.09,1.61,0,2.37.2s1.38.08,2.07.17a6.25,6.25,0,0,1,1.65.42,2.44,2.44,0,0,0,.65.14l1.55.19c.52.06,1.06-.13,1.56.18.12.07.33,0,.5,0,.58,0,1.16,0,1.74,0a18,18,0,0,1,3.59.24q1,.12,2.07.15a5.45,5.45,0,0,1,1.62,0c.49.17,1.05,0,1.49.33.1.08.33,0,.5,0,.78,0,1.57,0,2.35,0a18.39,18.39,0,0,1,4.2.24c1,.17,2,0,3.24.23l-.62.12.13.18c-1.15,0-2.31.07-3.45,0a13.34,13.34,0,0,0-1.55-.16c-.26,0-.54-.09-.76.15a.4.4,0,0,1-.38,0c-.42-.33-.9-.17-1.35-.17-1.47,0-2.93,0-4.37,0l-1.08.72c.29,0,.48,0,.66,0,.82,0,1.64,0,2.45,0a21.11,21.11,0,0,1,2.88.22,10,10,0,0,0,1.39.16l.34.38c1,0,2-.05,2.93,0s1.84.25,2.92.41l-1.79.62v.3c.66,0,1.3,0,1.94,0a5.68,5.68,0,0,1,2.2.35,1.63,1.63,0,0,0,.59,0c.68,0,1.36,0,2,0a2.22,2.22,0,0,1,1.33.39,5.22,5.22,0,0,1,1,0,3.88,3.88,0,0,1,.77.31c.39.15.82,0,1.24.21s.76.12,1.12.23a11.91,11.91,0,0,0,2.85.21c.3.45-.33.27-.34.55.21.6.84.67,1.39.75a4.14,4.14,0,0,1,1.09.32,4.8,4.8,0,0,0,1.73.49,3.76,3.76,0,0,1,1.51.51h-1.32l-.38.45a7.26,7.26,0,0,1-1.3-.18c-.43-.18-5.09-.08-5.57.34.09.13,4.24.23,4.3.32l2,.34c-.94.23-8.78.44-9.52.62.1.09,7.29.15,7.38.24.65.07,1.34-.14,2,.3l-1.3.52.35.33,3.15.27.22.22-.26.31-.25-.23-.33.43h-2.82a2,2,0,0,0,1.25.83c.44.17,1,.11,1.39.31a5.05,5.05,0,0,0,1.59.18l.1.34a7.07,7.07,0,0,1-2.56-.13.63.63,0,0,0-.19,0l-3.45-.25c-.18.15-5.48-.11-5.64,0,.13.15,5.4.63,5.54.8a4.38,4.38,0,0,1,2,.34.53.53,0,0,0,.19,0l2.87.19c.69.05,1.38.11,2.07.2.1,0,.19.16.29.25-.19.52-.85.39-1.13.72l.19.85.57.39c-1.07.15-1.94,0-2.79.09l-.22.21c-.23.37,0,.69.2,1.12-1.19-.21-9,0-9.88.35.58.23,8.13.92,8.7,1.18a5.38,5.38,0,0,0,2,.19l.77.46c-.09.3-.21.51-.54.49a1.42,1.42,0,0,0-.64.17,3.28,3.28,0,0,1-2.13-.08,1.63,1.63,0,0,0-.37-.08c-1.15,0-8.29-.11-9.46-.11,0,.13,6,.32,5.95.45h1.69l.52.46H194l-.32.65,1.09.38.6.62a6,6,0,0,1-.57.46,1.63,1.63,0,0,1-.87.34c-1.6.06-3.21.11-4.73.22-.36,0-7.29-.5-7.48-.41.12.12,7,1.07,7.22,1.34l2.48.59.17.38-.82.76c-.65.26-5-.1-5.78.32.31.43,4.16.77,4.62.85v.73l-.8.29.17.65-.47,0-.38.35h-.79l-.56.46a6.17,6.17,0,0,0-1-.43,5.78,5.78,0,0,0-1.1,0c-.75.63-5.71-.19-6.59,0,.45.35,5.05.88,5.5,1.15s1,.35,1.48.62h1.4l-.27,1.13a10.16,10.16,0,0,1-2.78-.42,16.2,16.2,0,0,0-2.21-.18c.14.21.18.35.28.4a2.52,2.52,0,0,0,1.62.39l0,.29a.85.85,0,0,1-.24.09,9.29,9.29,0,0,0-1.15.15,3.66,3.66,0,0,1-1.62-.2,5.29,5.29,0,0,0-2-.32c-.2.28-.11.51.26.75.92-.18,1.81.34,2.79.39a13.2,13.2,0,0,1,2.94.66c-.75.21-1.47-.09-2,.42v.38c-.09,0-.19.08-.27.06s-.42-.12-.69-.21l-.09.53c-.06,0-.12.07-.17.07h-6.14a4.51,4.51,0,0,0-1,.16c-.31.06-.59.4-1,.15-.25-.15-.69,0-.93-.17a1.69,1.69,0,0,0-1.07-.13,6.76,6.76,0,0,1-1.91-.32,2.25,2.25,0,0,0-.58-.07c-.58,0-1.16,0-1.74,0s-1.1-.14-1.65-.18a7.35,7.35,0,0,1-1.63,0c-.73-.22-1.5,0-2.16-.2-.83-.27-1.72.06-2.5-.35-1.14,0-2.25-.32-3.39-.2-.34,0-.69,0-1,0s-.62-.19-.94-.2h-.92a2.81,2.81,0,0,1-1,0c-.27-.12-.54.05-.8-.15s-.39,0-.59,0c-1,0-1.91,0-2.87,0-1.41.06-2.79-.35-4.21-.2a10,10,0,0,0-3.18-.19c-1.09,0-2.18,0-3.27,0a2.85,2.85,0,0,0-.46.12c-.16,0-.36.11-.47,0a1.85,1.85,0,0,0-1.62.08l-.31-.45h-1.32a3.18,3.18,0,0,1-1.25-.17c-.38-.15-.84.13-1.25-.19-.17-.12-.53,0-.8,0-4.54,0-9.07,0-13.6,0a11.76,11.76,0,0,0-2.57-.19c-1.87.39-3.76,0-5.64.2-.7.1-.79.83-1.15,1l-.78.24c-.33,0-.64-.08-1-.14a3.32,3.32,0,0,0-2.09,0,1.48,1.48,0,0,1-.3,0c-2.43-.14-4.84.3-7.28.19a3.89,3.89,0,0,0-2.2.34.44.44,0,0,1-.28,0c-1.35-.07-2.66.33-4,.2a2,2,0,0,0-1.15.17c-.33.16-.79-.14-1.15.19a.56.56,0,0,1-.49,0,2.11,2.11,0,0,0-1.55-.16,37.09,37.09,0,0,1-4.7.19l-.31.26,1,.36,0,.12a2.66,2.66,0,0,0-.49,0c-.45.06-.92-.13-1.37.12s-.92-.11-1.33.24c-.12.1-.4,0-.6,0-1.23,0-2.46,0-3.68,0a18.22,18.22,0,0,0-2.87.22c-.57.11-1.13,0-1.66.17a19.13,19.13,0,0,1-3.7.18,1.59,1.59,0,0,0-.38.06,8.72,8.72,0,0,1-1,.31,6.56,6.56,0,0,1-1,0l-1.35.77H59a25.32,25.32,0,0,1-2.88.19c-.34.27-.75.16-1.14.19s-.76.15-1.15.18-.81,0-1.31,0l-1.12-1.32c.06-.44.42-.86.15-1.33l-.62-.07a10,10,0,0,1,1.83-1.18c1.05-.19,1.91-.3,2.75-.51s1.61-.52,2.41-.78l.06-.43a3.37,3.37,0,0,1,2.16-.52,5.28,5.28,0,0,0,1.23-.21A6.35,6.35,0,0,0,62,43.4l-.57-.3a20.49,20.49,0,0,0-2.59,0c-.39,0-.79,0-1.19.13a5.81,5.81,0,0,1-1.32,0H54.92a2.29,2.29,0,0,1-1.15-.18,2.74,2.74,0,0,0-1.34-.2c-1.09,0-2.19.06-3.27,0-1.28-.09-2.53.26-3.8.2-.59.3-1.29,0-1.84.24a7.7,7.7,0,0,1-1.77.15c-.19,0-.35.15-.53.18a6.38,6.38,0,0,0-1.42.27,2.93,2.93,0,0,1-1.29.32,1.44,1.44,0,0,0-.53.2,1.48,1.48,0,0,1-.33.17c-.68.07-1.37.17-2.06.18A4.44,4.44,0,0,0,34,45.4a3.83,3.83,0,0,0-2.58.77c-1-.1-2,.32-3.05.19-.32,0-.62.34-.93.17a1.66,1.66,0,0,0-.95-.17c-.32,0-.6-.17-1,0a3.75,3.75,0,0,1-1,0c-.35,0-.69.13-1,.18l-.68.53.25.34s-.09.1-.12.09a11.37,11.37,0,0,0-3.19-.18,1.66,1.66,0,0,1-1.26-.39h-1a2.08,2.08,0,0,0-1.69-.37c.28-.37.49-.47,1.61-.7l-.64,0,.17-.19a7.56,7.56,0,0,1-2.37-.41h-.1a19.75,19.75,0,0,0-4.2-.16,39.89,39.89,0,0,1-4.22.16A11.29,11.29,0,0,0,5,45.4c-.38.06-.82-.17-1.14.19H1.39c.15-.23.2-.4.32-.46a3.63,3.63,0,0,1,1.51-.49,10.61,10.61,0,0,0,1.13,0c.33-.06.63-.27,1-.36a2.46,2.46,0,0,1,.61,0L6.17,43l-.36-.12a6.66,6.66,0,0,1-2-.41v-.29A1.78,1.78,0,0,0,5,41.88a.57.57,0,0,1,.25-.11c.65-.07,1.31-.17,2-.19a1.76,1.76,0,0,0,1.27-.47v-.59c.37-.21,6.89-.45,7.22-.63-.1-.09-6.39-.12-6.5-.23H6.84c-.74,0-1.74-.27-2.51-.27,0-.26,4.39-.64,4.38-.83-.17-.37-5,.2-5-.36a6.46,6.46,0,0,1,1.6-.28c.58,0,1.16-.13,1.75-.17s1.15,0,1.73,0c.13-.61-.54-.49-.72-.83l.17-.4c.4-.19,8.66-.78,9.15-1-.23-.24-8.24,0-8.43-.22H7.72l-.39.36a6.68,6.68,0,0,0-1,0c-.27.05-.51.25-.78.31a10,10,0,0,1-1.11.09l-.12-.38c1.1.14,2-.6,3.18-.37a1.49,1.49,0,0,0-1.32-.59,4.91,4.91,0,0,0-1.86.13,6.43,6.43,0,0,1-1.83,0L3,34.31H1.65c.11-.27,5.75-.58,5.85-.81-.38-.18-6.35.1-6.72,0L0,33.05l.29-.39A11.34,11.34,0,0,0,2,32.36a1.77,1.77,0,0,1,.64-.16,7.25,7.25,0,0,0,2.7-.38,1.48,1.48,0,0,1,.3,0c.72,0,2,.23,2.63-.2.15-.1,15.11-1.52,15.41-1.65-.17-.09-15,.52-15.74,1.05l.7-.53h.7l.45-.39h.84c.65-.3,8.36-.61,8.92-.87-.32-.23-8.25.15-8.62-.11.35-.13,6.11-1.19,6.49-1.33-.18-.06-5.36.36-5.51.31-.41-.15-.92-.08-1.45-.26A2.31,2.31,0,0,0,9.12,28a7.53,7.53,0,0,1-2,0c.67-1,22.18-2.8,22.59-3.55.95-.41-18.37,1.21-17.79.31a4.07,4.07,0,0,1,2.33-.4A7.23,7.23,0,0,1,15.47,24c.4,0,12.66-1.11,13-1.43,1.25.24-9.63.6-8.31.11H19l-.52-.3a8,8,0,0,1,3.11.08l-.19-.33.4-.11-.13-.14c.4,0,5.88.15,6.15,0s-4.26-.48-3.85-.32c.68.27,13.55-.4,14-.4-.08-.15-13,.11-13.1,0,.13-.15,6.64-.54,6.82-.74-1.43,0-9.18.24-10.56.24l-.33-.82H19.17c.24-.18.35-.35.48-.36a6.89,6.89,0,0,1,1.86-.2,1.23,1.23,0,0,0,.92-.21,1.26,1.26,0,0,1,1.05-.16,4.88,4.88,0,0,0,2.49,0c.43-.08,1,.28,1.33,0,.7-.61,8.49-.34,8.92-.61,0-.34-7.54-.51-7.54-.82.11-.1,3.64.25,3.78.12.64,0-2.12-.41-1.41-.42a4.88,4.88,0,0,0,1.86-.18c.72-.29,10.52-.55,11.31-.57-.52-.37-9.55,0-10,0-1.33,0-2.66,0-4,0a5,5,0,0,0-.94.18,2.36,2.36,0,0,0-1,.16c-.27.15-.73,0-1.1,0a13.25,13.25,0,0,0-4.1.68c-.41.13-.83.23-1.08-.05l-1.18.17-.79-.74s0-.06,0-.08l.36-.41,1.4-.56.14.83c.19-.06.45-.2.49-.15.26.27.35-.22.6-.09a1.56,1.56,0,0,0,.62,0ZM30.68,14c-.55.69-1.52.47-2.08,1H27.18l-.48.43H26l.4.39a7.87,7.87,0,0,0,1.54-.26,2.57,2.57,0,0,1,.85-.17,10.38,10.38,0,0,0,2.4-.58,1.88,1.88,0,0,0,.43-.3Zm2.93-.18a12.47,12.47,0,0,0-2.29-.14l.08.39A5.69,5.69,0,0,0,33.61,13.78Zm155,4.14,0,.09h1.26l-.41-.36ZM8.71,41.49v.71L9.17,42Zm74.41,3.75a1.33,1.33,0,0,0,1.16,0ZM68.36,47.36v.1h1v-.1ZM10.26,35.91l.14.13.32-.06-.1-.48ZM165.64,11.19h-.17l.07.32.1,0Z" transform="translate(0 0)" style="fill:#bae2f7"/><path d="M100.5,1,99.62.73c.39-.51.62-.56,1.16-.29a7.32,7.32,0,0,1,1.87-.39c2.76,0,5.53-.15,8.27.05s5.4.06,8.1.15c.38,0,.76.15,1.14.18a2.41,2.41,0,0,1,1.15.19c.14.08.4,0,.6,0,1.2,0,2.39,0,3.58,0a23.83,23.83,0,0,1,3.69.22A23.77,23.77,0,0,0,132,1a2.83,2.83,0,0,1,1.58.58c-.77,0-1.38,0-2,0a5.4,5.4,0,0,1-1.87-.16A7.07,7.07,0,0,0,128,1.18a1.55,1.55,0,0,1-1.19.42,3.11,3.11,0,0,0-1.06,0,4.49,4.49,0,0,1-1.22,0c-.41,0-.82,0-1.22,0a10.68,10.68,0,0,1-3.42-.38,2.79,2.79,0,0,0-.71,0c-4.6,0-9.19,0-13.79,0-.58,0-1.09-.22-1.65-.21A16.82,16.82,0,0,1,102,1c-.35,0-.67-.27-1-.18A4.07,4.07,0,0,0,100.5,1Z" transform="translate(0 0)" style="fill:#bae2f7"/><path d="M75.27,2c.53,0,1,.14,1.31,0s.79,0,1.11-.32c.16-.14.59,0,.9,0a4.83,4.83,0,0,0,1.58-.1c.48-.18,1,.14,1.43-.27.08-.07.32,0,.49,0,.79,0,1.57,0,2.35,0S85.88,1.05,86.6,1s1.5,0,2.25,0c.31,0,.69-.25.92-.15A4.46,4.46,0,0,0,91,1v.46l-.72.41L91.2,2l.07.24s0,.07-.07.08a.65.65,0,0,1-.19,0,16.82,16.82,0,0,1-3.51-.16.55.55,0,0,1-.3.15,9.93,9.93,0,0,1-2.44,0,9.48,9.48,0,0,0-2-.14,8.82,8.82,0,0,0-1.24.18,4.76,4.76,0,0,0-1.18.11c-.21.08-.56-.28-.83,0-.32-.22-.6-.11-1,0s-.63.13-.92.24a3.54,3.54,0,0,1-1.25.18c-.54,0-1.09,0-1.56,0l-.73.38a1.62,1.62,0,0,0-1.3-.1,6.18,6.18,0,0,1-1.3.2l-.32-.21c.07-.48.45-.4.75-.51s.51-.39.8-.51.54,0,.84-.18.66,0,1,0l.44.41Z" transform="translate(0 0)" style="fill:#bae2f7"/><path d="M96.07,1.17h-.88L96,.47,97.12.29l.38.33.44-.41.41.83L97.4.9s0,0-.05,0L97.21,1l-.38-.5Z" transform="translate(0 0)" style="fill:#bae2f7"/><path d="M140.71,1.62v.32h-3.84V1.62Z" transform="translate(0 0)" style="fill:#bae2f7"/><path d="M175,8.06h-4.45l-.45-.23a5.78,5.78,0,0,1,2.31,0,4.74,4.74,0,0,0,1.51,0h1.1Z" transform="translate(0 0)" style="fill:#bae2f7"/><path d="M25.73,46.93l.36.33-2.4.3.67-.63Z" transform="translate(0 0)" style="fill:#bae2f7"/><path d="M16.17,48.57c.48-.32.81.18,1.24.1a6.17,6.17,0,0,1,1.22,0l.06.28c-.07,0-.12.1-.17.1h-2Z" transform="translate(0 0)" style="fill:#bae2f7"/><path d="M134.68,1.78l-.92-.29.34-.28h1.62l.36.27C135.59,1.75,135.05,1.36,134.68,1.78Z" transform="translate(0 0)" style="fill:#bae2f7"/><path d="M24,15.52l-1.15.37-.49-.26c0-.1,0-.19.06-.21l1-.44Z" transform="translate(0 0)" style="fill:#bae2f7"/><path d="M25.19,18a9.73,9.73,0,0,0-1.08,0c-.3,0-.58.14-.89.15.59-.52,1.29-.29,2-.36Z" transform="translate(0 0)" style="fill:#bae2f7"/><path d="M93.81,2h1.32C94.64,2.46,94.49,2.47,93.81,2Z" transform="translate(0 0)" style="fill:#bae2f7"/><path d="M172.84,6.78h1v.36C173.48,7.09,173.1,7.29,172.84,6.78Z" transform="translate(0 0)" style="fill:#bae2f7"/><ellipse cx="166.7" cy="7.61" rx="1.16" ry="0.07" style="fill:#bae2f7"/><path d="M174,6.81l.8-.07v.61Z" transform="translate(0 0)" style="fill:#bae2f7"/><path d="M175.49,8.42V8.13l.56-.05.08.34Z" transform="translate(0 0)" style="fill:#bae2f7"/><path d="M93.22,2l-.38.35L92.11,2Z" transform="translate(0 0)" style="fill:#bae2f7"/><path d="M21.25,10.36l.44.33-.51.09-.06-.29Z" transform="translate(0 0)" style="fill:#bae2f7"/><path d="M17.49,48l-.28-.26.6-.08.08.14Z" transform="translate(0 0)" style="fill:#bae2f7"/></svg>