<svg xmlns="http://www.w3.org/2000/svg" viewBox="0 0 200 200"><g id="top"><path d="M200,75c-8.57,9.85-30.92,25-37.91,24.7,2.4-2.92,3.76-5.32,5.75-6.86,7.82-6.08,15.84-11.88,24.34-18.2-1.19-2.3-2-4.33-3.19-6.12-8.68-13.27-17.23-26.64-26.28-39.62A21.22,21.22,0,0,0,153.62,22c-6.51-2.68-13.37-4.43-20.47-6.69-.9,2.82-1.57,4.68-2.09,6.58-4,14.44-13.1,24.33-25.86,30.51A13,13,0,0,1,95,52.28C82.31,45.93,73.11,36.1,69.42,21.53c-.43-1.69-1.08-3.32-1.94-6C55.14,20,41.64,19.7,33.87,34,26.46,47.72,17,60.21,8.27,73.5c8.87,9.71,21.3,14.44,30,25.14-2.06,1-3.55,2.14-4,1.8C22.87,92.64,11.64,84.68,0,76.47c1.64-3.19,2.48-5.26,3.68-7.09,9.91-15.16,19.71-30.42,30-45.31,2.23-3.22,6.16-5.3,9.58-7.43,2.05-1.28,4.66-1.53,7-2.42C61.79,9.71,72.84,7.1,85.6,12,98,16.77,111.2,14.2,123.88,9.92c3.66-1.23,8.05-.87,12-.32,20.44,2.84,34.48,14.56,43.94,33.45,4.38,8.75,10.62,16.48,16,24.72C197.25,70,198.53,72.44,200,75ZM126.25,15.72c-17.94,6.41-34.48,5.35-51.72.41,3.1,16.76,12.88,25.52,25.56,32.14C113.21,42,122.53,32.89,126.25,15.72Z" transform="translate(0 0)" style="fill:#73d4ff"/><path d="M45.15,67.28c2.3,11.83.76,23.93,1,35.88.25,12.46-.07,24.93-.1,37.4,0,12.17,0,24.34,0,38,36.65,8.92,72.3,9.07,108.18,0V140.65c0-12.46-.07-24.93,0-37.4.09-12-.45-24,.43-36l3.22-.44c.76,2.18,2.17,4.35,2.18,6.54.11,28.75,0,57.5,0,86.26,0,4.57-.5,9.17-.21,13.72.42,6.53-2.56,10.29-8.31,11.52-9.58,2-19.19,4.72-28.88,5.18-22,1.06-44.06,2-65.79-3.06-5.18-1.21-10.2-3.14-16.4-5.09,0-37.61,0-74.65.1-111.68,0-1.11,1.47-2.21,2.25-3.31Z" transform="translate(0 0)" style="fill:#73d4ff"/></g><g id="sweater"><path d="M199.11,173.59c-10.17,7.91-21.5,5-32.76,5l-2.88,6.14.3,1.55c-9.14,2.26-18.17,5.56-27.45,6.59a312.87,312.87,0,0,1-80.65-1.13,34.66,34.66,0,0,1-11.32-3.3c-4.17-2.26-7.71-5.66-13.25-9.89-8.1.22-19,2.28-30.21-3.85-.25-8.51-.73-17.4-.76-26.3C.05,119.88.55,91.3,0,62.74c-.35-18.29,7.14-31.52,22.3-41C34.53,14.12,47.47,8.11,61.67,5.42A25,25,0,0,1,74,6.27a78,78,0,0,0,52.14.13,26,26,0,0,1,13-.82A110.88,110.88,0,0,1,181.62,24.4c12,8.57,18.46,20,18.38,35-.19,35.73-.21,71.45-.33,107.17C199.66,168.67,199.34,170.76,199.11,173.59Zm-143-160C41.36,18.07,28,23.91,16.93,34.27A31.8,31.8,0,0,0,6.67,58.42q0,40.92,0,81.85v30.09c10.3,3,19.19,3.4,28.66-.44,0-12,0-23.66,0-35.28,0-11.38-.49-22.78-.13-34.15s-1.82-22.87,1.47-34.36c6.55,1.47,4.79,6,4.79,9.2,0,31-.15,62-.27,92.94,0,4.16,0,8.32,0,13.65,39.47,9.68,77.8,9.59,117.74.27,0-9.74,0-18.42,0-27.09-.06-27.28-.17-54.57-.13-81.85,0-2.33.91-4.67,1.5-7.47,5.81,1.87,4.85,5.74,4.85,8.9,0,27-.2,54-.22,81,0,4.94.46,9.88.71,15,9.69,2.62,18.34,2.95,27.4-.48.21-3.88.55-7.27.56-10.67,0-32.84-.22-65.69.08-98.54.12-14-5.47-24.92-17-32.13-8.91-5.58-18.79-9.63-28.32-14.2-1.26-.6-3-.28-4.71-.41-6.15,21-18.34,35.26-41.07,36.32C77.15,51.79,63.18,37.16,56.16,13.55Zm17-.52c3.46,14.87,15.31,23.73,28.74,22.83,12.65-.85,23.31-10.21,24.55-22.4C108.91,18.18,91.48,19,73.17,13Zm-8.35.79c2.75,19.73,18.45,31.45,38.8,30.51,14.31-.67,32.31-15.21,31.79-32.51-5.93,18.94-16.62,30.57-35.62,30.4C81.22,42,70.65,30.62,64.82,13.82Z" transform="translate(0 0)" style="fill:#73d4ff"/></g><g id="coat"><path d="M187,180.87c-8.83,6.87-18.85,4.14-28.79,4.74-1.89,7.35-8.08,9.3-14.55,10.45a236.45,236.45,0,0,1-87.47-.28c-9-1.76-10-2.86-13.75-10-9.18-2-19.43,2.71-28.57-4.11-.13-2.36-.39-4.85-.39-7.33,0-40.68,0-81.35-.05-122,0-10.44,4.11-18.87,11.73-25.59A75.21,75.21,0,0,1,37,18.38C45,13.76,52.93,9,61.28,5.25c5.6-2.54,11.85-4.8,17.88-5a404.16,404.16,0,0,1,47,.92c6.48.56,12.65,4.95,18.92,7.7,2.52,1.11,4.94,2.48,7.38,3.77,5.7,3,11.6,5.77,17,9.23,12.22,7.76,18.26,18.66,18,33.63-.57,32.79-.37,65.61-.47,98.41C187,162.68,187,171.44,187,180.87ZM107.91,93.82l-.11.1c-2.39-9.85-4.94-19.66-7.12-29.56-1.34-6.09-4.34-10.7-8.86-15.13C80.13,37.78,71.52,24.76,76.26,6,71.88,7.4,67.94,8,64.64,9.85,62,11.29,58.44,14,58.25,16.42c-.73,9.33-.3,18.75-.3,29.18h16.9c-1.63,6.46-3,11.71-4.36,17.22,9,7.77,17.66,15.38,26.47,22.81C100.44,88.57,104.25,91.1,107.91,93.82Zm13.76-15.28,28.21-1.43c3.28-6-1.06-12.78,5.19-18.73.79,3.35,1.76,5.54,1.76,7.74,0,31.2-.17,62.39-.27,93.59,0,6.15,0,12.3,0,18,12.36,4.71,23,3.33,24.26-3-2.31-.15-4.58-.21-6.82-.48-2.05-.25-4.07-.73-6.11-1.11l-.2-2.38,14-3.67c0-8.06,0-16,0-24,0-30.27.09-60.55,0-90.82-.06-15-16.24-31.72-32.56-33.11V51.23H133.72l2.55,11.36c-5.56,6.15-10,11.09-14.49,16l-8.89,6.74c8.87,36.06,1.94,72,5.28,108.19,11.74-.89,23.12-1.11,33-6.49V83.66H123.3C122.59,81.45,122.13,80,121.67,78.54ZM52,18.83l-2-1.08c-5.38,3.07-10.91,5.9-16.1,9.26-10.28,6.66-15.1,16-15,28.56.38,34.66.11,69.33.13,104,0,2.48.28,5,.37,6.58,4.19,4.45,11,.33,14.25,7.15-2.74.46-4.86,1-7,1.14-2.33.18-4.7,0-7.58,0,3.1,6.74,16.12,7.75,24.76,2.61v-9.19q0-49.92,0-99.83c0-2.93-1.19-6.51,2.77-8.57,3.8,2.11,2.78,5.65,2.78,8.63q0,55.79-.18,111.58c0,2.47.4,5,.65,7.92,20,7.44,40.46,6.45,61.5,6.27V105.57L64.12,64.76c1.14-5,2-8.91,3.12-13.5H52Zm71.9-13c4.21,10.93,2.06,19.74-2.71,27.51s-11,14.6-17,22.41c1.9,7,4,14.71,6.49,23.9l19.74-16.79C128.9,57,127.58,51.73,126,45.3h17.62c0-8.55-.22-16.12.07-23.67.22-5.93-2.45-9.75-7.61-11.89C132.52,8.28,128.77,7.39,123.89,5.86Zm-3.5,7.35c-8.78-5.89-31.06-5.91-39.48-.43-2,11.64,7.68,29.07,20.25,36.08C111.87,39.23,121.07,28.8,120.39,13.21Z" transform="translate(0 0)" style="fill:#73d4ff"/><path d="M106.1,128.88c-2.11,1.57-4.06,4.07-6.37,4.48-3.23.58-5.73-1.66-5.74-5.3,0-3.44,1.93-6.19,5.38-5.73,2.36.32,4.44,2.69,6.64,4.14Z" transform="translate(0 0)" style="fill:#73d4ff"/><path d="M105.22,157c-5,2.71-8.18,3.08-10-.48-.74-1.42-.48-4.7.53-5.41,1.72-1.2,5.29-2.14,6.47-1.19C103.92,151.34,104.25,154.5,105.22,157Z" transform="translate(0 0)" style="fill:#73d4ff"/></g><g id="pants"><path d="M166.46,1.34c1.92,65.87,3.83,131.54,5.77,197.88H102.57c-.72-13.75-1.41-26.83-2.09-39.92H99.4c-.65,12.93-1.29,25.87-1.91,38.39-6.26,2.88-62,3.15-69.72.28C29.68,132.85,31.59,67.35,33.5,2.07,38.87-.17,155.79-.86,166.46,1.34ZM58.81,27.44c-1.2,8.27-1.54,15.84-3.52,23-2.24,8-9.78,10.93-17.75,13.69-1.21,40-2.41,79.91-3.64,120.64h8.92c6.37,0,12.76-.19,19.11.12,2,.1,3.85,1.55,5.77,2.39-.2.74-.4,1.48-.61,2.21-10.61,2.91-22.11-.9-32.7,2.22,0,.64.11,1.28.16,1.92H92.08c1.82-55.53,6.53-110.47,4.83-166.15ZM162.44,63.57c-20.75-4.32-20.72-20-19.88-35.95H117.11c0,9.81-.32,19,.08,28.11.49,11.22-1.35,20.9-14.13,25.12q2.46,56.64,4.88,112.21c11,2.42,53.95,1.58,58.57-1.57-11.6-2.56-23,.76-33.66-3.38,10-6.57,21.89-.81,33.13-4.94C164.81,143.64,163.64,104.07,162.44,63.57ZM160.66,6.62H39.55v14H160.66ZM103.79,27.9V73.6c6.14-2.41,7.48-6.75,7.52-11.71q.12-14.49,0-29a38.12,38.12,0,0,0-.83-5.42,27.71,27.71,0,0,0-4-.35A12,12,0,0,0,103.79,27.9ZM38.64,56.18C51,55.69,54,41.65,50.65,27.68h-12Zm122.46-.1V27.58H149.32C146.34,41.93,148.63,55.75,161.1,56.08Z" transform="translate(0 0)" style="fill:#73d4ff"/></g><g id="jacket"><path d="M199.79,179.12c-10.92,7.53-22.6,4.18-34.14,4.88-1.2,7.35-7,9.86-13.44,11.06a235.56,235.56,0,0,1-25.86,3.78c-24.34,1.83-48.69,1.84-72.79-2.52-7.9-1.43-16.73-2.17-19.45-12.33-11-.58-22.65,2.28-33.38-4-.21-3.15-.56-5.95-.56-8.74C.11,137.34.28,103.42,0,69.5-.13,53.36,5.88,40.31,20,32.22,36.86,22.59,54,13.07,71.89,5.63,94-3.58,116.56-.93,137.94,9.51c12.28,6,24.28,12.57,36.35,19C192,37.87,200.41,52,200,72.17c-.69,32.61-.19,65.25-.19,97.87ZM103.79,51V193.39c18.78-.1,36.72-.59,54.69-7.33V176.3q0-47,.05-94c0-3-1.26-6.89,5-9,.54,3.88,1.37,7.17,1.38,10.46.11,28,.06,55.93.1,83.89,0,2.75.32,5.51.51,8.49,9.57,2.31,18.27,2.66,27.1-.27a29,29,0,0,0,.7-4.22c0-35.73.2-71.46-.27-107.18a31.66,31.66,0,0,0-5.26-16c-7.6-11.62-20-17-33-22.23-.85,2.31-1.53,4-2.08,5.65-3.14,9.58-10,15.13-19.92,16.78-6.23,1-12.61,1.31-18.92,1.82C110.77,50.81,107.65,50.85,103.79,51Zm-7.68-.69c-6.87,0-12.91.3-18.91,0-15.1-.88-27.57-5.59-31.31-22-.1-.43-.67-.76-1.77-2C38.58,29.08,32.63,31.75,27,35c-13.83,8-21,19.4-20.65,35.77.59,31.83.16,63.68.2,95.52,0,3.06.28,6.11.45,9.6,9.47,2.64,18.31,3.18,27.93-.38V159.73c0-25.63-.05-51.26.08-76.88,0-3.22-1.57-7.54,5.06-9.2.46,3.42,1.23,6.5,1.24,9.59.09,30.55,0,61.1,0,91.64V185c10.39,6.39,41.82,10.34,54.72,7.14ZM73.35,22.23C76,36.64,88.23,45.29,102.65,44.16c12.27-1,22.92-10.58,23.14-21.69A95.68,95.68,0,0,1,73.35,22.23Zm-3-9.41c16.58,9.41,48.07,9,58.32-.58C109.32,5.06,90.52,4.59,70.35,12.82Zm6.24,30.92L63.26,20.55l-10.33,3C53.69,37.29,59.35,42,76.59,43.74ZM123.91,43c15,.62,23.53-6.56,22.57-20l-10.1-2.16C131.85,28.91,127.87,36,123.91,43Z" transform="translate(0 0)" style="fill:#73d4ff"/></g><g id="skirt"><path d="M28.2,182.78c1-4.81,1.55-8.46,2.61-11.94C40.3,139.5,41.48,107.5,39.25,75.1c-1.23-17.81.8-35.21,9.55-51.36,1.67-3.09,2-7,2.65-10.56S52.23,6,52.56,2.74c9-3.48,86.92-3.41,92.4-1.11,4.6,13.22,8.88,24.91,12.73,36.73,5.21,16,4.48,32.57,3,48.88-2.58,28.88,1.77,56.82,9.06,84.53.63,2.39,1.34,4.77,1.95,7.17a18.42,18.42,0,0,1,0,3.12c-2.33,1.68-4.94,4.74-8.18,5.7-13.57,4-27.15,9.13-41.07,10.66-28.17,3.08-56.39,2.48-83.08-9.31C35.82,187.52,32.52,185.24,28.2,182.78Zm136.14-2.72c-1.33-5.73-2.14-9.65-3.16-13.52-7.61-28.81-8.93-58-7.28-87.69.7-12.52-1.1-25.28-2.89-37.77-.8-5.52-4.39-10.63-6.64-15.77H56c-2,4.29-4.28,8.3-5.77,12.59-5,14.36-5.58,29.33-3.95,44.17,2.85,26,.31,51.38-5.36,76.65-1.48,6.62-3,13.23-4.76,20.85l13.7,6.69c10.09-26.11,10.31-52.71,15-78.71,2.29,3,3.72,6.07,3.36,8.94C65.78,136.74,63,157,60.17,177.18c-.49,3.52-1.29,7-2.14,11.49C94.75,195.09,129.64,196.05,164.34,180.06ZM141.56,8.43H59.66v8.93h81.42C141.25,14.21,141.37,11.88,141.56,8.43Z" transform="translate(0 0)" style="fill:#73d4ff"/></g><g id="other"><path d="M156.76,75.4c19.21.37,24.19,12.17,25.83,28.29,2.43,24,6.32,47.88,9.53,71.81,1.89,14.11-5.77,24.13-20,24.23q-71.94.54-143.89,0c-14.39-.1-22-8.32-20.44-22.63,3-27.64,6.93-55.17,10.7-82.72,1.79-13,10.49-18.57,23.73-18.86,1.12-6.25,2-12,3.18-17.61C48.91,41.12,55.48,25.77,68,13.62,86.22-4,110.32-4.53,129.39,12c15.83,13.74,22.29,32.18,25.84,52C155.81,67.24,156.11,70.51,156.76,75.4ZM80.57,136,22.64,123.39c-2.5,19.08-5.29,37.43-7.13,55.88-.78,7.8,4.16,11.8,13.71,11.84q70.77.27,141.55,0c10.14,0,13.81-4.28,13-14.63-.78-9.82-2.49-19.57-3.85-29.34-1.09-7.81-2.25-15.61-3.41-23.61l-57.36,12.34C105.91,154.31,93.46,153.92,80.57,136ZM81,126c13.08-16.9,20.58-16.76,39.19.11,18.62-1.85,37.43-4,54.13-14.29a56.9,56.9,0,0,0,.27-7.11c-1.6-17-5.73-20.78-22.74-20.84-11.36,0-22.71,0-34.07,0-24.54,0-49.08-.11-73.61.06-12.32.08-16.39,3.78-18.3,15.73-.63,3.89-1,7.81-1.59,12.15C42.31,121.79,61.26,124.62,81,126Zm67-50.61c-1.82-24.88-8.48-45.52-27.76-60.06-12.08-9.12-25.45-9.37-38-1.54A57.23,57.23,0,0,0,65.8,29.51C56.59,42.9,51.18,57.77,52.64,75.34Zm-40.16,51.12c-8.44-6-8.44-6-14,0ZM94.48,136.67c0,.75,0,1.5,0,2.25h9.9c0-.75,0-1.5,0-2.25Z" transform="translate(0 0)" style="fill:#73d4ff"/></g><g id="dress"><path d="M52.36,49.11c7.3,11,9.35,24.28,13.18,37.25H134c4.86-12.67,5.11-26.88,14.12-37.33l2.67.77a64.53,64.53,0,0,1-1.31,7.37c-2.05,7-4.51,13.9-6.42,20.94-3.45,12.76-2.76,24.9,1.61,37.87,6.07,18,9.53,36.88,13.55,55.5,1.09,5.06.17,10.55.17,15.53-12.28,17-101.06,17.58-117.19.15-1.72-11.35.81-23.22,3.26-34.93,2.29-11,4.52-22.3,9.2-32.35,8.59-18.47,5.52-36.1-.36-54.06C52.16,62.35,50.6,59,49.64,55.5c-.49-1.81-.08-3.86-.08-5.8Zm12.08,59.05c-9.64,24.69-17.35,49.5-16.93,75.66,21.6,13.69,89.51,13,104.85-1-.29-25.8-7-50.6-17.26-74.67Zm2.35-7.85h65.46a12,12,0,0,0,1-3,22.86,22.86,0,0,0-.64-3.81H66.79Z" transform="translate(0 0)" style="fill:#73d4ff"/><path d="M124.29,0c8.63,2.73,17.48,5.4,26.22,8.4a11.4,11.4,0,0,1,5.27,3.9c9.48,13.59,18.77,27.31,28.06,41,.58.86.64,2.08,1.17,3.91-9.73,7.31-18.69,15.74-31.17,19,4.31-10.3,15.87-12.81,22.93-21.59C174,50.25,171.1,45.56,168,41c-3.44-5.13-7.88-9.75-10.46-15.26C151.7,13.16,140.31,11,128.15,8.44c-5,13.49-13.33,23.45-28.72,23-14.24-.47-23.22-8.82-27.57-23.21-11,3.26-22,3.82-28.46,15.6-5.87,10.73-13.68,20.4-20.71,30.66,7.12,8.71,18.5,11.53,24.5,21.17C40.25,76.87,20.82,64.31,15,55.39c1.24-2.06,2.56-4.48,4.09-6.76,4.68-7,10.38-13.5,14-21,7.56-15.78,20.75-22.8,36.77-26A20.35,20.35,0,0,1,79.55,2C94.32,6.61,108.8,6.67,124.29,0ZM80.62,10.7c2.87,9.6,9.76,14.6,20.12,14.24C110.28,24.6,117,19.26,119,10.7Z" transform="translate(0 0)" style="fill:#73d4ff"/></g></svg>