<svg xmlns="http://www.w3.org/2000/svg" viewBox="0 0 806.68 370"><g id="lake"><path d="M800,275.42c-61.92-6.58-139.28-10.49-224.07-10.49-93.4,0-145.18,14.33-209.37,13.71-79.18-.76-160,12.79-174,20.55-13.71,7.62,100.53,17,180.81,26.65C439.4,333.76,476.7,370,570.6,370c86.32,0,165.86-4.05,229.4-10.85Z" style="fill:#d9ebed"/></g><g id="tree--2"><polygon points="707.25 180.84 695.64 156.48 702.63 156.48 692.93 136.14 699.54 136.14 677 88.83 654.46 136.14 661.07 136.14 651.37 156.48 658.36 156.48 646.75 180.84 672.68 180.84 672.68 209.38 681.32 209.38 681.32 180.84 707.25 180.84" style="fill:#ccc"/><polygon points="587.7 182.61 575.45 156.9 582.83 156.9 572.59 135.41 579.57 135.41 555.77 85.47 531.97 135.41 538.95 135.41 528.71 156.9 536.09 156.9 523.84 182.61 551.21 182.61 551.21 212.74 560.33 212.74 560.33 182.61 587.7 182.61" style="fill:#ccc"/><polygon points="424 188.57 411.75 162.86 419.12 162.86 408.89 141.38 415.87 141.38 392.07 91.44 368.27 141.38 375.25 141.38 365.01 162.86 372.39 162.86 360.13 188.57 387.51 188.57 387.51 218.7 396.62 218.7 396.62 188.57 424 188.57" style="fill:#ccc"/></g><g id="tree--1"><polygon points="669 189.09 649.9 149.02 661.4 149.02 645.45 115.54 656.32 115.54 619.23 37.71 582.14 115.54 593.02 115.54 577.07 149.02 588.57 149.02 569.47 189.09 612.13 189.09 612.13 236.04 626.34 236.04 626.34 189.09 669 189.09" style="fill:#e6e6e6"/><polygon points="373.01 197.51 357.48 164.94 366.83 164.94 353.86 137.73 362.7 137.73 332.56 74.47 302.41 137.73 311.25 137.73 298.28 164.94 307.63 164.94 292.11 197.51 326.79 197.51 326.79 235.67 338.33 235.67 338.33 197.51 373.01 197.51" style="fill:#e6e6e6"/></g><g id="house"><polygon points="455.31 115.71 406.96 164.26 406.96 239.61 503.67 239.61 503.67 164.26 455.31 115.71" style="fill:#e6e6e6"/></g><g id="sun--6"><rect width="800" height="370" style="fill:#c6e5f0"/></g><g id="sun--5"><path d="M800,370V0H226.26a453.24,453.24,0,0,0-59.4,370Z" style="fill:#d9ebed"/></g><g id="sun--4"><path d="M800,370V42.36A287.31,287.31,0,0,0,742,0H465.29C377.24,48.72,317.62,142.48,317.62,250.16A284.56,284.56,0,0,0,343.93,370Z" style="fill:#e2eeeb"/></g><g id="sun--3"><path d="M730.14,370A173.46,173.46,0,0,0,778,250.16C778,154,699.94,76,603.66,76S429.34,154,429.34,250.16A173.51,173.51,0,0,0,477.18,370Z" style="fill:#f0f2e9"/></g><g id="sun--2"><ellipse cx="603.66" cy="250.16" rx="105.71" ry="105.62" style="fill:#fff9ec"/></g><g id="sun--1"><ellipse cx="603.66" cy="250.16" rx="60" ry="59.95" style="fill:#fff"/></g><g id="cloud--4"><path d="M634.32,160.13a7,7,0,0,1-1.49-4.25c0-4.51,4.51-8.16,10.07-8.16l.49,0c2-6.92,9.6-12.08,18.73-12.08a23.17,23.17,0,0,1,7.11,1.1c4.91-5.87,13.21-9.73,22.63-9.73a30.6,30.6,0,0,1,19.78,6.87,26,26,0,0,1,11.67-2.69c7.39,0,13.94,2.94,18,7.46a19.9,19.9,0,0,1,6.15-1c7.32,0,13.53,3.82,15.78,9.13q.45,0,.9,0a11.25,11.25,0,0,1,7.48,2.7,10.32,10.32,0,0,1,2.59-.34,9,9,0,0,1,6.58,2.66,8.75,8.75,0,0,1,3.19-.6,8.12,8.12,0,0,1,5.67,2.16,7.64,7.64,0,0,1,2.75-.5,7.29,7.29,0,0,1,4.29,1.33,7.6,7.6,0,0,1,3.55-.86c3.58,0,6.48,2.35,6.48,5.25a4.31,4.31,0,0,1-.28,1.52Z" style="fill:#ccc"/></g><g id="cloud--3"><path d="M585.32,170.06a5.92,5.92,0,0,1-2.14-4.44c0-3.63,3.63-6.57,8.1-6.57a10.25,10.25,0,0,1,1.59.12c1.51-5.65,7.7-9.88,15.12-9.88h.29c1.65-8,10.25-14.16,20.63-14.16,8.48,0,15.79,4.11,19.06,10a33.32,33.32,0,0,1,6.62-.66c9.26,0,17.44,3.8,22.28,9.57a15.92,15.92,0,0,1,6.68-1.44c5.79,0,10.73,3,12.61,7.15q.4,0,.81,0c4.48,0,8.11,2.94,8.11,6.57a5.77,5.77,0,0,1-1.47,3.77Z" style="fill:#e6e6e6"/></g><g id="cloud--2"><path d="M325.78,157.22a12.4,12.4,0,0,0,1.85-6.53,12.54,12.54,0,0,0-12.55-12.54c-.21,0-.41,0-.61,0a24,24,0,0,0-32.22-16.87,34.07,34.07,0,0,0-52.87-4.39,27.62,27.62,0,0,0-36.94,7.32A20.79,20.79,0,0,0,165.1,136.8c-.38,0-.75-.05-1.13-.05a12.52,12.52,0,0,0-9.32,4.16,10.17,10.17,0,0,0-3.23-.52,10.32,10.32,0,0,0-8.21,4.07,9.12,9.12,0,0,0-11,2.41,8,8,0,0,0-8.78,1.26,8.09,8.09,0,0,0-12.5,6.76,8.15,8.15,0,0,0,.34,2.33Z" style="fill:#fcfcfc"/></g><g id="cloud--1"><path d="M190.58,146.12a10.08,10.08,0,0,0-7.44-16.92,9.92,9.92,0,0,0-2,.2,19.29,19.29,0,0,0-18.85-15.19H162a26.08,26.08,0,0,0-49.49-6.4,33.94,33.94,0,0,0-8.24-1,33.51,33.51,0,0,0-27.78,14.71,16.77,16.77,0,0,0-24.06,8.77c-.33,0-.67-.05-1-.05a10.11,10.11,0,0,0-10.11,10.1,10,10,0,0,0,1.84,5.79Z" style="fill:#e6e6e6"/></g><g id="mountain--2"><polygon points="800 370 800 196.79 746.33 216.33 663.66 196.79 565 279.72 485 235.56 352 302.69 215 268.06 124.33 185.47 81 210.78 0 134.85 0 370 800 370" style="fill:#e6e6e6"/></g><g id="mountain--1"><polygon points="800 370 800 245.02 739.67 235.28 679.67 265.9 559.67 267.41 453 331.28 313 308.98 222.33 245.68 150.94 279.08 51 210.78 0 245.76 0 370 800 370" style="fill:#fcfcfc"/></g></svg>