<svg xmlns="http://www.w3.org/2000/svg" viewBox="0 0 800 370"><g id="sun--6"><rect width="800" height="370" style="fill:#c6e5f0"/></g><g id="sun--5"><path d="M800,370V0H226.26a453.24,453.24,0,0,0-59.4,370Z" style="fill:#d9ebed"/></g><g id="sun--4"><path d="M800,370V42.36A287.31,287.31,0,0,0,742,0H465.29C377.24,48.72,317.62,142.48,317.62,250.16A284.56,284.56,0,0,0,343.93,370Z" style="fill:#e2eeeb"/></g><g id="sun--3"><path d="M730.14,370A173.46,173.46,0,0,0,778,250.16C778,154,699.94,76,603.66,76S429.34,154,429.34,250.16A173.51,173.51,0,0,0,477.18,370Z" style="fill:#f0f2e9"/></g><g id="sun--2"><ellipse cx="603.66" cy="250.16" rx="105.71" ry="105.62" style="fill:#fff9ec"/></g><g id="sun--1"><ellipse cx="603.66" cy="250.16" rx="60" ry="59.95" style="fill:#fff"/></g><g id="mountain--2"><polygon points="800 370 800 196.79 746.33 216.33 663.66 196.79 565 279.72 485 235.56 352 302.69 215 268.06 124.33 185.47 81 210.78 0 134.85 0 370 800 370" style="fill:#ccc"/></g><g id="mountain--1"><polygon points="800 370 800 245.02 739.67 235.28 679.67 265.9 559.67 267.41 453 331.28 313 308.98 222.33 245.68 150.94 279.08 51 210.78 0 245.76 0 370 800 370" style="fill:#e6e6e6"/></g><g id="cloud--4"><path d="M604.3,156.13a7,7,0,0,1-1.49-4.25c0-4.51,4.51-8.16,10.07-8.16l.49,0c2-6.92,9.59-12.09,18.72-12.09a23.23,23.23,0,0,1,7.12,1.11c4.91-5.88,13.21-9.74,22.62-9.74a30.57,30.57,0,0,1,19.78,6.88,26.08,26.08,0,0,1,11.67-2.69c7.4,0,13.94,2.94,18,7.45a20.15,20.15,0,0,1,6.15-.95c7.32,0,13.53,3.82,15.77,9.13.3,0,.6,0,.91,0a11.16,11.16,0,0,1,7.47,2.71,10,10,0,0,1,2.59-.34,9.05,9.05,0,0,1,6.59,2.65,8.87,8.87,0,0,1,3.19-.59,8.08,8.08,0,0,1,5.66,2.16,7.72,7.72,0,0,1,2.75-.5,7.41,7.41,0,0,1,4.3,1.32,7.56,7.56,0,0,1,3.54-.85c3.58,0,6.48,2.35,6.48,5.25a4.54,4.54,0,0,1-.27,1.52Z" style="fill:#ccc"/></g><g id="cloud--3"><path d="M555.3,166.05a5.91,5.91,0,0,1-2.15-4.44c0-3.62,3.63-6.57,8.11-6.57a10.44,10.44,0,0,1,1.59.13c1.5-5.65,7.7-9.88,15.12-9.88h.29c1.65-8,10.25-14.15,20.62-14.15,8.49,0,15.79,4.1,19.07,10a33.22,33.22,0,0,1,6.61-.66c9.27,0,17.44,3.79,22.28,9.57a15.8,15.8,0,0,1,6.68-1.44c5.8,0,10.74,3,12.62,7.15.27,0,.54,0,.81,0,4.48,0,8.11,2.95,8.11,6.58a5.72,5.72,0,0,1-1.47,3.76Z" style="fill:#e6e6e6"/></g><g id="cloud--2"><path d="M325.78,157.22a12.4,12.4,0,0,0,1.85-6.53,12.54,12.54,0,0,0-12.55-12.54c-.21,0-.41,0-.61,0a24,24,0,0,0-32.22-16.87,34.07,34.07,0,0,0-52.87-4.39,27.62,27.62,0,0,0-36.94,7.32A20.79,20.79,0,0,0,165.1,136.8c-.38,0-.75-.05-1.13-.05a12.52,12.52,0,0,0-9.32,4.16,10.17,10.17,0,0,0-3.23-.52,10.32,10.32,0,0,0-8.21,4.07,9.12,9.12,0,0,0-11,2.41,8,8,0,0,0-8.78,1.26,8.09,8.09,0,0,0-12.5,6.76,8.15,8.15,0,0,0,.34,2.33Z" style="fill:#ccc"/></g><g id="cloud--1"><path d="M190.58,146.12a10.08,10.08,0,0,0-7.44-16.92,9.92,9.92,0,0,0-2,.2,19.29,19.29,0,0,0-18.85-15.19H162a26.08,26.08,0,0,0-49.49-6.4,33.94,33.94,0,0,0-8.24-1,33.51,33.51,0,0,0-27.78,14.71,16.77,16.77,0,0,0-24.06,8.77c-.33,0-.67-.05-1-.05a10.11,10.11,0,0,0-10.11,10.1,10,10,0,0,0,1.84,5.79Z" style="fill:#e6e6e6"/></g></svg>