<svg id="noOrder" xmlns="http://www.w3.org/2000/svg" viewBox="0 0 120 100"><path d="M65.67,22.1a.17.17,0,0,1,0-.05,6.26,6.26,0,1,0-3.75-11.71A8.18,8.18,0,0,0,49.08,6h0a9.79,9.79,0,0,0-8.72,5.34,7.18,7.18,0,0,0-8.24,3.95,4.73,4.73,0,0,0-5,1.73,4.46,4.46,0,0,0-6.2,1.16,3.81,3.81,0,0,0-5.92,3.16,3.38,3.38,0,0,0,.08.72Z" style="fill:#8de1ff"/><path d="M114.81,6.64a8,8,0,1,1-9.22,13.07c-.18-.12-.34-.25-.51-.38a11.58,11.58,0,0,0,9.2-13m0,0-2.77-2.83a9.79,9.79,0,0,1-8.71,14.28,11.34,11.34,0,0,1-1.3-.08,9.8,9.8,0,1,0,14.35-12.5,9.9,9.9,0,0,0-4.34-1.7Z" style="fill:#73d4ff"/><path d="M114.81,6.64a8,8,0,1,1-9.22,13.07c-.18-.12-.34-.25-.51-.38a11.58,11.58,0,0,0,9.2-13" style="fill:#fff"/><path d="M114.28,6.3" style="fill:#fff"/><path d="M48,38.26,28.57,58.74a2.49,2.49,0,0,0-.68,1.72V87.2a2.5,2.5,0,0,0,2.5,2.5h5.82A2.46,2.46,0,0,0,38.57,88a9.26,9.26,0,0,1,17.68,0,2.47,2.47,0,0,0,2.37,1.72H90.37A2.47,2.47,0,0,0,92.74,88a9.25,9.25,0,0,1,17.67,0,2.48,2.48,0,0,0,2.37,1.72h4.72a2.5,2.5,0,0,0,2.5-2.5V40a2.5,2.5,0,0,0-2.5-2.5H49.77A2.51,2.51,0,0,0,48,38.26Zm-.51,21.88H35.27a2.5,2.5,0,0,1-1.79-4.24l15.45-16a2.46,2.46,0,0,1,1.79-.76h4.65a2.5,2.5,0,0,1,2.24,3.6l-7.93,16A2.49,2.49,0,0,1,47.45,60.14Z" style="fill:#8de1ff"/><path d="M37,89.57A10.43,10.43,0,1,0,47.41,79.15,10.43,10.43,0,0,0,37,89.57Z" style="fill:#c0efff"/><path d="M91.4,89.57a10.43,10.43,0,1,0,10.43-10.42A10.44,10.44,0,0,0,91.4,89.57Z" style="fill:#c0efff"/><rect x="9.07" y="31.46" width="2.02" height="60.94" style="fill:#73d4ff"/><rect width="20.15" height="31.46" style="fill:#c0efff"/><path d="M108.38,23.08a7.23,7.23,0,0,0-7.23-7.22l-.44,0a6.63,6.63,0,0,0-5.91-3.62,6.72,6.72,0,0,0-2.11.35,11.81,11.81,0,0,0-18.22,1.73,9.08,9.08,0,0,0-10.61,4.58,5.22,5.22,0,0,0-4.57,2.9,4.29,4.29,0,0,0-6.44,3.73h55.08A7.22,7.22,0,0,0,108.38,23.08Z" style="fill:#c0efff"/></svg>