<svg id="noOrder" xmlns="http://www.w3.org/2000/svg" viewBox="0 0 120 100"><path d="M114.81,6.64a8,8,0,1,1-9.22,13.07c-.18-.12-.34-.25-.51-.38a11.58,11.58,0,0,0,9.2-13m0,0-2.77-2.83a9.79,9.79,0,0,1-8.71,14.28,11.34,11.34,0,0,1-1.3-.08,9.8,9.8,0,1,0,14.35-12.5,9.9,9.9,0,0,0-4.34-1.7Z" style="fill:#73d4ff"/><circle cx="73.42" cy="18.83" r="9.1" style="fill:#a6e8ff"/><circle cx="85.76" cy="16.67" r="11.82" style="fill:#d9f5ff"/><circle cx="96.28" cy="14.66" r="6.65" style="fill:#8de1ff"/><circle cx="93.28" cy="22.98" r="5.25" style="fill:#c0efff"/><circle cx="102.63" cy="18.83" r="7.22" style="fill:#a6e8ff"/><circle cx="24.19" cy="20.36" r="7.24" style="fill:#a6e8ff"/><circle cx="34.61" cy="17.8" r="9.81" style="fill:#d9f5ff"/><circle cx="39.63" cy="14.49" r="8.19" style="fill:#c0efff"/><circle cx="45.1" cy="22.02" r="6.47" style="fill:#d9f5ff"/><circle cx="50.5" cy="17.8" r="6.26" style="fill:#8de1ff"/><path d="M114.81,6.64a8,8,0,1,1-9.22,13.07c-.18-.12-.34-.25-.51-.38a11.58,11.58,0,0,0,9.2-13" style="fill:#fff"/><path d="M114.28,6.3" style="fill:#fff"/><path d="M48.7,37.48l-20.81,22V89.7H38.21a9.26,9.26,0,0,1,18.4,0H92.38a9.25,9.25,0,0,1,18.39,0H120V37.48ZM49,60.14H29.39l20.27-21H59.4Z" style="fill:#8de1ff"/><path d="M37,89.57A10.43,10.43,0,1,0,47.41,79.15,10.43,10.43,0,0,0,37,89.57Z" style="fill:#c0efff"/><path d="M91.4,89.57a10.43,10.43,0,1,0,10.43-10.42A10.44,10.44,0,0,0,91.4,89.57Z" style="fill:#c0efff"/><rect x="9.07" y="31.46" width="2.02" height="60.94" style="fill:#73d4ff"/><rect width="20.15" height="31.46" style="fill:#c0efff"/></svg>