<svg id="noOrder" xmlns="http://www.w3.org/2000/svg" viewBox="0 0 130 97.97"><path d="M120.68,6.64a8,8,0,1,1-9.22,13.07c-.18-.12-.34-.25-.51-.38a11.58,11.58,0,0,0,9.2-13m0,0-2.77-2.83a9.79,9.79,0,0,1-8.71,14.28,11.51,11.51,0,0,1-1.31-.08,9.85,9.85,0,0,0,3.06,3.51,9.8,9.8,0,1,0,11.3-16,9.9,9.9,0,0,0-4.34-1.7Z" style="fill:#ccc"/><circle cx="79.29" cy="18.83" r="9.1" style="fill:#f2f2f2"/><circle cx="91.63" cy="16.67" r="11.82" style="fill:#e8e8e8"/><circle cx="102.15" cy="14.66" r="6.65" style="fill:#d8d8d8"/><circle cx="99.15" cy="22.98" r="5.25" style="fill:#ccc"/><circle cx="108.5" cy="18.83" r="7.22" style="fill:#d3d3d3"/><circle cx="24.19" cy="20.36" r="7.24" style="fill:#f2f2f2"/><circle cx="34.61" cy="17.8" r="9.81" style="fill:#e8e8e8"/><circle cx="39.63" cy="14.49" r="8.19" style="fill:#d8d8d8"/><circle cx="45.1" cy="22.02" r="6.47" style="fill:#ccc"/><circle cx="50.5" cy="17.8" r="6.26" style="fill:#d3d3d3"/><rect x="9.07" y="31.46" width="2.02" height="60.94" style="fill:#ccc"/><path d="M120.68,6.64a8,8,0,1,1-9.22,13.07c-.18-.12-.34-.25-.51-.38a11.58,11.58,0,0,0,9.2-13" style="fill:#fff"/><path d="M120.15,6.3" style="fill:#fff"/><path d="M55.27,32.44l-21.81,23V87.17H44.28a9.7,9.7,0,0,1,19.28,0h37.49a9.7,9.7,0,0,1,19.28,0H130V32.44Zm.31,23.74H35l21.25-22h10.2Z" style="fill:#e8e8e8"/><path d="M43,87A10.93,10.93,0,1,0,53.92,76.11,10.94,10.94,0,0,0,43,87Z" style="fill:#d8d8d8"/><path d="M100,87A10.93,10.93,0,1,0,111,76.11,10.94,10.94,0,0,0,100,87Z" style="fill:#d8d8d8"/><rect width="20.15" height="31.46" style="fill:#e8e8e8"/></svg>