<svg xmlns="http://www.w3.org/2000/svg" viewBox="0 0 25 25"><g id="van"><path d="M19.33,2.33H0V19.42H1.92a3.25,3.25,0,0,0,6.5,0h7.87a3.25,3.25,0,0,0,6.5,0H25V9.33Zm-.52,1,4.93,6H18.13l-1.42-6ZM5.17,21.6a2.18,2.18,0,1,1,2.18-2.18A2.18,2.18,0,0,1,5.17,21.6Zm14.37,0a2.18,2.18,0,1,1,2.18-2.18A2.19,2.19,0,0,1,19.54,21.6Z" style="fill:#686868"/></g><g id="account"><path d="M12.5,12.31A6.16,6.16,0,1,0,6.35,6.15,6.16,6.16,0,0,0,12.5,12.31Z" style="fill:#686868"/><path d="M12.5,13.65A12.52,12.52,0,0,0,.06,25H24.94A12.52,12.52,0,0,0,12.5,13.65Z" style="fill:#686868"/></g><g id="pickup"><polygon points="16.67 16.58 16.67 12.81 15.19 12.81 15.19 16.58 11.42 16.58 11.42 18.06 15.19 18.06 15.19 21.82 16.67 21.82 16.67 18.06 20.43 18.06 20.43 16.58 16.67 16.58" style="fill:#686868"/><path d="M21.33,11.87V0H2.94V22.73h7.54A7.68,7.68,0,1,0,21.33,11.87ZM6.49,3.48H17.78V5H6.49Zm0,3.05H17.78V8H6.49Zm9.44,17a6.2,6.2,0,1,1,6.2-6.2A6.21,6.21,0,0,1,15.93,23.52Z" style="fill:#686868"/></g><g id="search"><path d="M16.25,13.91a8.85,8.85,0,1,0-2.34,2.35L22.65,25,25,22.66ZM8.9,16.3a7.4,7.4,0,1,1,7.4-7.4A7.41,7.41,0,0,1,8.9,16.3Z" style="fill:#686868"/></g><g id="home"><path d="M25,12.3h0L21.23,8.57V2.38h-4.3V4.32L12.56,0,0,12.3v1.35H3.77V25h6V16h5.44v9h6V13.65H25ZM19.79,7.15l-1.42-1.4V3.82h1.42" style="fill:#686868"/></g><g id="order"><path d="M12.5,0A12.5,12.5,0,1,0,25,12.5,12.5,12.5,0,0,0,12.5,0Zm-.76,19.14-6.4-7.53L7.63,9.67l4.13,4.86L18.08,7.2l2.27,2Z" style="fill:#686868"/></g><g id="back"><path d="M12.5,0A12.5,12.5,0,1,0,25,12.5,12.5,12.5,0,0,0,12.5,0Zm4.11,18-1.93,2.3L5.4,12.5l9.28-7.79L16.61,7,10.06,12.5Z" style="fill:#686868"/></g><g id="x"><path d="M12.5,0A12.5,12.5,0,1,0,25,12.5,12.5,12.5,0,0,0,12.5,0Zm6,16.42-2.12,2.12L12.5,14.62,8.58,18.54,6.46,16.42l3.92-3.92L6.46,8.58,8.58,6.46l3.92,3.92,3.92-3.92,2.12,2.12L14.62,12.5Z" style="fill:#686868"/></g></svg>