<svg xmlns="http://www.w3.org/2000/svg" viewBox="0 0 100 100"><g id="account"><path d="M50,49.22A24.61,24.61,0,1,0,25.39,24.61,24.64,24.64,0,0,0,50,49.22ZM50,8A16.61,16.61,0,1,1,33.39,24.61,16.63,16.63,0,0,1,50,8Z" style="fill:#707071"/><path d="M7.87,100a42.38,42.38,0,0,1,84.26,0h7.65A50,50,0,0,0,.22,100Z" style="fill:#707071"/></g><g id="request"><path d="M63.71,38.56A30.72,30.72,0,1,0,94.43,69.28,30.75,30.75,0,0,0,63.71,38.56ZM88.52,69.28A24.81,24.81,0,1,1,63.71,44.47,24.84,24.84,0,0,1,88.52,69.28Z" style="fill:#707071"/><polygon points="66.66 51.26 60.76 51.26 60.76 66.33 45.69 66.33 45.69 72.23 60.76 72.23 60.76 87.3 66.66 87.3 66.66 72.23 81.73 72.23 81.73 66.33 66.66 66.33 66.66 51.26" style="fill:#707071"/><rect x="25.94" y="13.93" width="45.19" height="5.91" style="fill:#707071"/><rect x="25.94" y="26.13" width="45.19" height="5.91" style="fill:#707071"/><path d="M31.49,85.71,31.06,85H17.65V5.91H79.42V35.6l.72.43A31.64,31.64,0,0,1,83,37.92l2.32,1.72V0H11.74V90.9H35.1l-1.72-2.32A33.11,33.11,0,0,1,31.49,85.71Z" style="fill:#707071"/></g><g id="search"><path d="M65,55.64A35.65,35.65,0,1,0,55.63,65l35,35L100,90.62ZM35.6,65.2A29.6,29.6,0,1,1,65.19,35.6,29.64,29.64,0,0,1,35.6,65.2Z" style="fill:#707071"/></g><g id="home"><polygon points="79.14 94.29 66.65 94.29 66.65 58.37 33.35 58.37 33.35 94.29 20.86 94.29 20.86 48.84 15.09 48.84 15.09 100 39.11 100 39.11 64.08 60.89 64.08 60.89 100 84.91 100 84.91 48.84 79.14 48.84 79.14 94.29" style="fill:#707071"/><path d="M84.91,34.28V9.5H67.72v7.78L50.25,0,0,49.2l3.58,4.29L50.23,7.82,96.4,53.48l3.6-4.27Zm-11.43-19h5.66V28.58L73.48,23Z" style="fill:#707071"/></g></svg>